<svg xmlns="http://www.w3.org/2000/svg" viewBox="0 0 772 773"><defs><style>.cls-1{isolation:isolate;}.cls-2{fill:#e0e0e0;}</style></defs><g id="Ellipse_1" data-name="Ellipse 1" class="cls-1"><g id="Ellipse_1-2" data-name="Ellipse 1"><path class="cls-2" d="M351,599a126,126,0,1,1-89.1,36.9A125.21,125.21,0,0,1,351,599M280,149a54.5,54.5,0,1,0,54.5,54.5A54.5,54.5,0,0,0,280,149Zm71,395A181,181,0,1,0,532,725,181,181,0,0,0,351,544Z" transform="translate(-125 -133)"/></g></g><g id="Ellipse_2" data-name="Ellipse 2" class="cls-1"><g id="Ellipse_2-2" data-name="Ellipse 2"><path class="cls-2" d="M704.5,188A50.5,50.5,0,1,1,654,238.5,50.55,50.55,0,0,1,704.5,188m0-55A105.5,105.5,0,1,0,810,238.5,105.49,105.49,0,0,0,704.5,133Z" transform="translate(-125 -133)"/></g></g><g id="Ellipse_3" data-name="Ellipse 3" class="cls-1"><g id="Ellipse_3-2" data-name="Ellipse 3"><path class="cls-2" d="M655,476a37,37,0,1,0,37,37,37,37,0,0,0-37-37Z" transform="translate(-125 -133)"/></g></g><g id="Ellipse_4" data-name="Ellipse 4" class="cls-1"><g id="Ellipse_4-2" data-name="Ellipse 4"><path class="cls-2" d="M789.5,697A52.5,52.5,0,1,1,737,749.5,52.56,52.56,0,0,1,789.5,697m0-55A107.5,107.5,0,1,0,897,749.5,107.5,107.5,0,0,0,789.5,642Z" transform="translate(-125 -133)"/></g></g><g id="Ellipse_5" data-name="Ellipse 5" class="cls-1"><g id="Ellipse_5-2" data-name="Ellipse 5"><path class="cls-2" d="M194.5,392A14.5,14.5,0,1,1,180,406.5,14.51,14.51,0,0,1,194.5,392m0-55A69.5,69.5,0,1,0,264,406.5,69.5,69.5,0,0,0,194.5,337Z" transform="translate(-125 -133)"/></g></g></svg>